<svg xmlns="http://www.w3.org/2000/svg" viewBox="0 0 300 200" width="300" height="200">
  <!-- Keyboard base -->
  <rect x="20" y="100" rx="8" ry="8" width="260" height="80" fill="#333" stroke="#222" stroke-width="2"/>
  <!-- Keyboard rows -->
  <!-- Row 1 -->
  <rect x="32" y="108" rx="2" ry="2" width="18" height="14" fill="#555"/>
  <rect x="53" y="108" rx="2" ry="2" width="18" height="14" fill="#555"/>
  <rect x="74" y="108" rx="2" ry="2" width="18" height="14" fill="#555"/>
  <rect x="95" y="108" rx="2" ry="2" width="18" height="14" fill="#555"/>
  <rect x="116" y="108" rx="2" ry="2" width="18" height="14" fill="#555"/>
  <rect x="137" y="108" rx="2" ry="2" width="18" height="14" fill="#555"/>
  <rect x="158" y="108" rx="2" ry="2" width="18" height="14" fill="#555"/>
  <rect x="179" y="108" rx="2" ry="2" width="18" height="14" fill="#555"/>
  <rect x="200" y="108" rx="2" ry="2" width="18" height="14" fill="#555"/>
  <rect x="221" y="108" rx="2" ry="2" width="18" height="14" fill="#555"/>
  <rect x="242" y="108" rx="2" ry="2" width="18" height="14" fill="#555"/>
  <!-- Row 2 -->
  <rect x="36" y="125" rx="2" ry="2" width="18" height="14" fill="#555"/>
  <rect x="57" y="125" rx="2" ry="2" width="18" height="14" fill="#555"/>
  <rect x="78" y="125" rx="2" ry="2" width="18" height="14" fill="#555"/>
  <rect x="99" y="125" rx="2" ry="2" width="18" height="14" fill="#555"/>
  <rect x="120" y="125" rx="2" ry="2" width="18" height="14" fill="#555"/>
  <rect x="141" y="125" rx="2" ry="2" width="18" height="14" fill="#555"/>
  <rect x="162" y="125" rx="2" ry="2" width="18" height="14" fill="#555"/>
  <rect x="183" y="125" rx="2" ry="2" width="18" height="14" fill="#555"/>
  <rect x="204" y="125" rx="2" ry="2" width="18" height="14" fill="#555"/>
  <rect x="225" y="125" rx="2" ry="2" width="18" height="14" fill="#555"/>
  <!-- Row 3 -->
  <rect x="40" y="142" rx="2" ry="2" width="18" height="14" fill="#555"/>
  <rect x="61" y="142" rx="2" ry="2" width="18" height="14" fill="#555"/>
  <rect x="82" y="142" rx="2" ry="2" width="18" height="14" fill="#555"/>
  <rect x="103" y="142" rx="2" ry="2" width="18" height="14" fill="#555"/>
  <rect x="124" y="142" rx="2" ry="2" width="18" height="14" fill="#555"/>
  <rect x="145" y="142" rx="2" ry="2" width="18" height="14" fill="#555"/>
  <rect x="166" y="142" rx="2" ry="2" width="18" height="14" fill="#555"/>
  <rect x="187" y="142" rx="2" ry="2" width="18" height="14" fill="#555"/>
  <rect x="208" y="142" rx="2" ry="2" width="18" height="14" fill="#555"/>
  <!-- Spacebar -->
  <rect x="82" y="159" rx="2" ry="2" width="120" height="14" fill="#555"/>
  <!-- Pressed/glowing keys (cat is lying on them) -->
  <rect x="95" y="108" rx="2" ry="2" width="18" height="14" fill="#7B68EE" opacity="0.7"/>
  <rect x="116" y="108" rx="2" ry="2" width="18" height="14" fill="#7B68EE" opacity="0.6"/>
  <rect x="137" y="108" rx="2" ry="2" width="18" height="14" fill="#7B68EE" opacity="0.8"/>
  <rect x="158" y="108" rx="2" ry="2" width="18" height="14" fill="#7B68EE" opacity="0.5"/>
  <rect x="99" y="125" rx="2" ry="2" width="18" height="14" fill="#7B68EE" opacity="0.6"/>
  <rect x="120" y="125" rx="2" ry="2" width="18" height="14" fill="#7B68EE" opacity="0.7"/>
  <rect x="141" y="125" rx="2" ry="2" width="18" height="14" fill="#7B68EE" opacity="0.5"/>
  <rect x="162" y="125" rx="2" ry="2" width="18" height="14" fill="#7B68EE" opacity="0.6"/>
  <!-- Cat body (loaf shape, lying across keyboard) -->
  <ellipse cx="150" cy="95" rx="70" ry="32" fill="#FF8C00"/>
  <!-- Tabby stripes on body -->
  <path d="M100 80 Q105 75 110 82" fill="none" stroke="#D2691E" stroke-width="2" opacity="0.4"/>
  <path d="M120 78 Q125 72 130 79" fill="none" stroke="#D2691E" stroke-width="2" opacity="0.4"/>
  <path d="M140 76 Q145 70 150 77" fill="none" stroke="#D2691E" stroke-width="2" opacity="0.4"/>
  <path d="M160 78 Q165 72 170 79" fill="none" stroke="#D2691E" stroke-width="2" opacity="0.4"/>
  <path d="M180 80 Q185 75 190 82" fill="none" stroke="#D2691E" stroke-width="2" opacity="0.4"/>
  <!-- Cat head -->
  <circle cx="90" cy="82" r="25" fill="#FF8C00"/>
  <!-- Left ear -->
  <polygon points="72,66 64,42 82,58" fill="#FF8C00" stroke="#D2691E" stroke-width="1.5"/>
  <polygon points="74,64 68,47 80,58" fill="#FFB6C1"/>
  <!-- Right ear -->
  <polygon points="108,66 116,42 98,58" fill="#FF8C00" stroke="#D2691E" stroke-width="1.5"/>
  <polygon points="106,64 112,47 100,58" fill="#FFB6C1"/>
  <!-- Eyes (closed, sleeping/content) -->
  <path d="M78,78 Q82,74 86,78" fill="none" stroke="#333" stroke-width="2" stroke-linecap="round"/>
  <path d="M94,78 Q98,74 102,78" fill="none" stroke="#333" stroke-width="2" stroke-linecap="round"/>
  <!-- Nose -->
  <polygon points="90,83 87,87 93,87" fill="#FF69B4"/>
  <!-- Mouth (content smile) -->
  <path d="M87,87 Q90,91 93,87" fill="none" stroke="#D2691E" stroke-width="1.5"/>
  <!-- Whiskers -->
  <line x1="55" y1="80" x2="76" y2="83" stroke="#D2691E" stroke-width="1"/>
  <line x1="53" y1="86" x2="75" y2="86" stroke="#D2691E" stroke-width="1"/>
  <line x1="56" y1="92" x2="76" y2="89" stroke="#D2691E" stroke-width="1"/>
  <line x1="125" y1="80" x2="104" y2="83" stroke="#D2691E" stroke-width="1"/>
  <line x1="127" y1="86" x2="105" y2="86" stroke="#D2691E" stroke-width="1"/>
  <line x1="124" y1="92" x2="104" y2="89" stroke="#D2691E" stroke-width="1"/>
  <!-- Front paw tucked under -->
  <ellipse cx="72" cy="105" rx="10" ry="6" fill="#FF8C00" stroke="#D2691E" stroke-width="1"/>
  <!-- Tail curling up from the right -->
  <path d="M218 90 Q240 85 250 65 Q255 50 245 40" fill="none" stroke="#FF8C00" stroke-width="8" stroke-linecap="round"/>
  <path d="M218 90 Q240 85 250 65 Q255 50 245 40" fill="none" stroke="#D2691E" stroke-width="1.5" stroke-linecap="round" opacity="0.3"/>
  <!-- Tail stripes -->
  <path d="M232 80 Q235 76 238 81" fill="none" stroke="#D2691E" stroke-width="1.5" opacity="0.4"/>
  <path d="M242 68 Q245 64 248 69" fill="none" stroke="#D2691E" stroke-width="1.5" opacity="0.4"/>
  <!-- Typed gibberish on screen hint (floating text) -->
  <text x="105" y="25" font-family="monospace" font-size="11" fill="#7B68EE" opacity="0.8">asdfghjkl;'</text>
  <!-- "Z" sleep indicators -->
  <text x="58" y="52" font-family="sans-serif" font-size="10" fill="#888" font-weight="bold">z</text>
  <text x="48" y="40" font-family="sans-serif" font-size="13" fill="#888" font-weight="bold">z</text>
  <text x="36" y="26" font-family="sans-serif" font-size="16" fill="#888" font-weight="bold">z</text>
</svg>
